<svg xmlns="http://www.w3.org/2000/svg" viewBox="0 0 128 128">
  <defs>
    <style>
      .flask-body { fill: #e8edf4; stroke: #2563eb; stroke-width: 3; }
      .flask-neck { fill: #e8edf4; stroke: #2563eb; stroke-width: 3; }
      .neck-rim { fill: none; stroke: #2563eb; stroke-width: 4; stroke-linecap: round; }
      .liquid { fill: #10b981; }
      .five { fill: #dc2626; font-family: system-ui, Arial, sans-serif; }
      .bubble { fill: #6ee7b7; }
      .vapor { fill: #10b981; opacity: 0.35; }
      @media (prefers-color-scheme: dark) {
        .flask-body { fill: #1e293b; stroke: #60a5fa; }
        .flask-neck { fill: #1e293b; stroke: #60a5fa; }
        .neck-rim { stroke: #60a5fa; }
        .liquid { fill: #059669; }
        .five { fill: #f87171; }
        .bubble { fill: #6ee7b7; }
        .vapor { fill: #34d399; opacity: 0.4; }
      }
    </style>
    <!-- Clip inset by 2px from flask edges so liquid doesn't bleed into stroke -->
    <clipPath id="flask-clip">
      <path d="M52 48 L26 100 Q22 110 32 116 L96 116 Q106 110 102 100 L76 48 Z"/>
    </clipPath>
  </defs>

  <!-- Vapor bubbles above flask -->
  <circle class="vapor" cx="55" cy="12" r="5"/>
  <circle class="vapor" cx="68" cy="7" r="4"/>
  <circle class="vapor" cx="76" cy="15" r="3"/>

  <!-- Flask neck -->
  <rect class="flask-neck" x="50" y="24" width="28" height="24" rx="2"/>

  <!-- Neck rim -->
  <line class="neck-rim" x1="47" y1="24" x2="81" y2="24"/>

  <!-- Flask body -->
  <path class="flask-body" d="
    M50 46
    L22 102
    Q18 112 30 118
    L98 118
    Q110 112 106 102
    L78 46
    Z
  "/>

  <!-- Liquid inside flask (clipped to inner area) -->
  <rect class="liquid" x="10" y="72" width="118" height="60" clip-path="url(#flask-clip)"/>

  <!-- Bubbles inside liquid -->
  <circle class="bubble" cx="40" cy="102" r="3"/>
  <circle class="bubble" cx="86" cy="96" r="2.5"/>
  <circle class="bubble" cx="50" cy="86" r="2"/>

  <!-- Number 5 — large, centered in flask -->
  <text class="five" x="64" y="112" font-size="56" font-weight="800" text-anchor="middle">5</text>
</svg>
